<svg width="642" height="692" viewBox="0 0 642 692" fill="none" xmlns="http://www.w3.org/2000/svg">
<path opacity="0.933333" d="M340 82L349.5 83L350.5 84L362.5 85L363.5 86H368.5L374 88.5L375 101.5L376 102.5V108.5L378 116.5V123.5L379 124.5V131.5L380 132.5V140.5L381.5 146L417.5 99L445 106C445.833 109.067 445.333 111.067 443.5 112L436 115L431 128.5L426 148.5V153.5L419 177.5L426 185.5V188.5L423.5 190L389 179C388.333 176.46 388.833 174.793 390.5 174L396.5 173L400 170.5L411 126.5L408 128.5L373.5 173H365.5L365 170.5L364 169.5L362 151.5L360 145.5V139.5L358 132.5V125.5L354.5 112L349 128.5L348 135.5L344 145.5L342 156.5L344.5 160L348 162.5L349 165.5L348 168L339.5 166H334.5L333.5 165L321.5 164L320 162.5V157H322.5L328.5 155L331 152.5C332.407 144.24 334.74 136.907 338 130.5V127.5L341 121.5L342 114.5L345 108.5L348 94.5L341 87.5L340 82Z" fill="white" stroke="white"/>
<path opacity="0.933333" d="M262.5 87H275.5C276.167 88.3333 277.833 88.6667 280.5 88C285.447 89.72 289.28 92.5533 292 96.5L295 105.5L294 108.5L293 115.5L287 125L277 130.5C283.127 133.373 288.127 137.373 292 142.5L293.5 145C295 144.5 295.5 145 295 146.5L305.5 156L313.5 158L316 160.5V164H310.5L309.5 165L291.5 167L284.5 164L273 152.5C269.767 146.4 265.6 141.233 260.5 137L257.5 136C255.667 136.833 255.5 137.667 257 138.5L259 156.5L263.5 164C266.667 163.833 268.833 164.667 270 166.5C271.387 170.4 270.553 171.9 267.5 171L261.5 173L248.5 174L247.5 175L233 177C232.973 171.88 234.973 168.38 239 166.5L240 158.5L239 157.5V151.5L238 150.5L236 136.5L233 127.5V121.5L232 120.5L231 111.5L227.5 104L220.5 102L218 99.5C216.887 96.2933 217.72 95.1267 220.5 96L234.5 92L243.5 91L247.5 89L261.5 88L262.5 87ZM251 98L249 100L254 128L263 127L270 123L274 114L273 107L270 101L263 98H251Z" fill="white" stroke="white"/>
<path opacity="0.933333" d="M158.5 121H160.5L165.5 125L216.5 172C218.833 173.667 222.5 174 227.5 173L229 172.5C229.833 176 229.333 178.167 227.5 179L196.5 195H193V189.5L197 183.5L186.5 174H183.5L163 185L164 196.5L166.5 201H174.5L176 202.5C176.5 205.667 175.667 207.5 173.5 208L167.5 210L153.5 219H151L150 213.5C154.133 210.633 155.467 204.967 154 196.5L153 195.5L151 171.5L147 154.5V148.5L145 141.5L142.5 138H140.5L137 134.5C136.667 131.833 137.5 130.333 139.5 130L158.5 121ZM158 147L157 153L158 154L160 173L161 175L179 167L158 147Z" fill="white" stroke="white"/>
<path opacity="0.933333" d="M476.5 125L530 161.5C528.027 168.193 524.86 173.693 520.5 178C516.393 178.44 513.893 177.273 513 174.5V165.5L506.5 156L496.5 149L481 169.5L491.5 179L494.5 180C496 176.833 498.667 174.833 502.5 174L506 176L507 179.5L490.5 200L485 196.5L488 188.5C484.507 184.327 480.007 181.16 474.5 179L462 194.5C460.267 195.433 459.6 197.433 460 200.5L466.5 208L474.5 213H484.5L493.5 210L499 213.5V215.5L485 229.5V231H482.5L476.5 227L434.5 195L430 193L429 190.5L430 187L434.5 188H441.5L470 151.5L478 139.5V134.5L475 129.5V126.5L476.5 125Z" fill="white" stroke="white"/>
<path opacity="0.933333" d="M85.5 169L89 170L90 173.5L86 181.5V216H97.5L98.5 217L113.5 218L120.5 220L135.5 221L145.5 217C147.667 217.5 148.5 219.333 148 222.5L144 228L141 229.5L134.5 237L127.5 242L126.5 241H118.5L117.5 240H111.5L103.5 238H92.5L91.5 237H85L86.5 240C88 239.5 88.5 240 88 241.5L102.5 255L107.5 256L113.5 253L116 257.5L92.5 284L88 280.5L89 272.5L90 271.5L87.5 268L62 244.5L60.5 242L45.5 229H41.5L35.5 231L33 230V227.5L44 215.5V214C45.78 214.753 46.4467 214.253 46 212.5L56.5 201L60 203.5L59 213.5L61.5 217L77.5 231L78 214.5L77 213.5V203.5L76 199.5L72.5 195C68.3333 195.833 65.8333 195 65 192.5V190.5L85.5 169Z" fill="white" stroke="white"/>
<path opacity="0.933333" d="M554.5 186L564 194.5L579 212.5V216L574.5 217L566.5 214L520 252.5L519 256.5L527.5 267L534.5 270H541.5L542.5 269C546.613 269.78 549.613 269.447 551.5 268L554 269L556 273.5L533.5 289L492 238.5C492.667 236.167 494.833 235.333 498.5 236L499.5 237H506.5C522.96 225.46 538.127 212.627 552 198.5L553 191.5L552 189.5L554.5 186Z" fill="white" stroke="white"/>
<path opacity="0.933333" d="M286.5 201H315.5L316.5 202H322.5L338.5 206L359.5 216L376 231.5L383 242.5L388 257.5C387.167 260.667 387.5 262.667 389 263.5V286.5L388 287.5V302.5L391 309.5L404 326.5L407 332.5V339.5L402.5 345L395 348L394 351.5L397 360.5L395 366L391 368.5L392 376.5L387 382.5V401.5L380.5 410L374.5 413C371.333 412.167 369.333 412.5 368.5 414H355.5L354.5 413H336.5L325.5 416L316 424.5L313 430.5L311 447.5L312 448.5V454.5L313 455.5V461.5L314 462.5L315 470.5L318 477.5L319 484.5L323 494.5L327 510.5L328 523.5L329 524.5V542.5L328 543.5L327 554.5L325.5 556L323 554.5L320 548.5L303.5 530C302 530.5 301.5 530 302 528.5L267.5 501L242.5 484L226.5 471L212 456.5L194 432.5L187 420.5L178 400.5L169 367.5L168 350.5L167 349.5V326.5L168 325.5V317.5L169 316.5L170 304.5L178 279.5L192 254.5L205.5 239C207 239.5 207.5 239 207 237.5L220.5 226L242.5 213L264.5 205L273.5 204L278.5 202H285.5L286.5 201Z" fill="white" stroke="white"/>
<path opacity="0.933333" d="M454.5 386L455 397.5L454 398.5V404.5L453 405.5V411.5L452 412.5L451 420.5L448 427.5V430.5L441 445.5C433.587 458.42 424.42 469.587 413.5 479C398.887 491.72 383.22 503.387 366.5 514L344 534.5L336.5 545L336 537.5L337 536.5L338 528.5L341 522.5V519.5L350 500.5C357.72 487.553 367.22 476.387 378.5 467L405.5 446L412 439.5L410.5 439L376.5 461L358 478.5L346 496.5L340 509.5L339 516.5L337.5 518C336 518.5 335.5 518 336 516.5L335 515.5V499.5L336 498.5V489.5L338 483.5V478.5C340.227 475.06 341.56 470.727 342 465.5C346.46 454.293 352.627 444.793 360.5 437L381.5 422L402.5 412L407.5 411L437.5 398L454.5 386Z" fill="white" stroke="white"/>
<path opacity="0.933333" d="M105.5 459C107 458.5 107.5 459 107 460.5C111.067 462.433 112.733 466.767 112 473.5L103 498.5L104.5 498L117 489.5L118 482.5L119.5 481L123 482.5C125.9 485.6 127.9 489.6 129 494.5C128.167 496.333 127.333 496.5 126.5 495L121.5 494L94.5 511L92 510L91 505.5L101 476.5L99.5 476L96.5 479L84 486L83 492.5L81.5 494L78 491.5L73 481.5C73.5 480 75 479.5 77.5 480L81.5 481L103 467C104 465.833 104.333 463.667 104 460.5L105.5 459Z" fill="white" stroke="white"/>
<path opacity="0.933333" d="M526.5 465C532.733 464.1 536.567 465.6 538 469.5V475.5L533 481.5V484C537.827 484.974 541.16 484.14 543 481.5L544 474.5L545.5 473L548 474.5L549 481.5L545 490L541.5 492L532.5 493L523 488L520 481.5V472.5L523.5 467L526.5 465ZM525 472L526 478L530 480L532 475C530.667 472.334 528.333 471.334 525 472Z" fill="white" stroke="white"/>
<path opacity="0.933333" d="M512.5 486L518 490.5C518.333 493.167 517.5 494.667 515.5 495L512 496V499.5L518.5 506L522.5 509H525.5C526.333 507.5 527.167 507.667 528 509.5C526.5 514 524 517.5 520.5 520C518.28 520.753 517.447 520.253 518 518.5L517 515H515.5C512.167 510.333 507.833 506.667 502.5 504L500.5 505L499 502.5L504.5 494L506.5 495L510.5 487L512.5 486Z" fill="white" stroke="white"/>
<path opacity="0.933333" d="M121.5 507C128.834 506.667 134 508.5 137 512.5L138 519.5C136 524.5 132.834 528.333 128.5 531L124 534.5L125 540H121.5L117 538L116 532C112.08 532.58 109.414 531.413 108 528.5C106.554 526.613 106.22 523.613 107 519.5C108.5 515.667 112.667 514.5 119.5 516L123.5 519H129L131 514.5C130.5 513 129 512.5 126.5 513C125.667 514.5 123.667 514.833 120.5 514L118 510.5L119 508L121.5 507ZM119 521L117 522C115 522.667 114.334 524.333 115 527C115.667 528.333 117.334 528.667 120 528L123 524L119 521Z" fill="white" stroke="white"/>
<path opacity="0.933333" d="M489.5 512C494.513 512.32 498.013 514.153 500 517.5L501.5 520C503 519.5 503.5 520 503 521.5L510 526C509.253 523.78 510.253 523.113 513 524C513.833 528.333 513 531.333 510.5 533L504 534C503.947 537.753 502.447 540.42 499.5 542C497.833 543.333 495.167 543.667 491.5 543L487 538.5V533.5L493 523.5C491.467 520.8 489.133 519.3 486 519L487 528.5L482.5 531L480 530C479 528.833 478.667 526.667 479 523.5C480.5 519 483 515.5 486.5 513L489.5 512Z" fill="white" stroke="white"/>
<path opacity="0.933333" d="M463.5 523L469 525.5L473 533.5L469.5 535L462.5 531H456.5C452.927 532.76 451.427 536.593 452 542.5C453.42 548.413 456.253 552.913 460.5 556C462.947 558.22 466.947 558.887 472.5 558L475 557L478 552.5C477.42 547.96 477.753 544.793 479 543C481.553 542.5 483.22 543.333 484 545.5L485 552.5L474.5 564L466.5 567H460.5C455.167 565.333 451 562.5 448 558.5L444 550.5V540.5L450 530L463.5 523Z" fill="white" stroke="white"/>
<path opacity="0.933333" d="M149.5 526H158.5L160 527.5L157 531.5L163 537.5L160.5 540L153.5 537L145 546.5L143 551.5L149 554.5L147.5 557C141.487 557.347 137.32 555.847 135 552.5L134 546.5L145.5 532C147 532.5 147.5 532 147 530.5L144.5 527C147.167 527.667 148.833 527.333 149.5 526Z" fill="white" stroke="white"/>
<path opacity="0.933333" d="M165 543H170.5L176 545C175.16 551.593 172.493 556.76 168 560.5L167 567.5L170.5 569C174.76 565.593 177.927 561.093 180 555.5L179 551H183.5L190 554.5L189 559.5L178 575.5L179 579L171.5 578L169 575.5C169.833 573 169 572.167 166.5 573L160.5 571L157 567.5V563.5L164 552.5L166 546.5L165 543Z" fill="white" stroke="white"/>
<path opacity="0.933333" d="M384.5 560L390 562V568.5L388.5 570C383.667 570.833 380.833 569.667 380 566.5C379.5 563.333 380.333 561.5 382.5 561L384.5 560Z" fill="white" stroke="white"/>
<path opacity="0.933333" d="M421.5 560L426 563.5L427 568.5C426.5 570 425 570.5 422.5 570L419.5 569L418 571.5L423 586L428 587L426.5 590L418.5 593H414V584.5L408.5 572L405 570.5L407.5 567C409.233 564.627 411.733 563.627 415 564L415.5 566L419.5 561L421.5 560Z" fill="white" stroke="white"/>
<path opacity="0.933333" d="M199.5 561L208.5 562L210 563.5L210.5 566C211.333 564.5 213.333 564.167 216.5 565C219 565.833 219.833 568.333 219 572.5C218.333 574.833 216.167 575.667 212.5 575L209.5 571L202 583.5V586.5L204 589.5L200.5 591L190 585.5C189.167 583 190 582.167 192.5 583L195 579.5L200 565.5L198 562.5L199.5 561Z" fill="white" stroke="white"/>
<path opacity="0.933333" d="M260.5 566C263.667 565.167 265.667 565.5 266.5 567L268.5 566L270 567.5V575.5L267 586.5L266 604.5L267 609L255.5 608L252 605.5L256 602.5L258 588.5L259 587.5L260 570.5L258 567L260.5 566Z" fill="white" stroke="white"/>
<path opacity="0.933333" d="M390.5 571C392.72 570.253 393.553 570.753 393 572.5L395 576.5L397 587.5L400.5 595C403.413 594 404.58 594.5 404 596.5L398.5 600L389 601L390 597.5V592.5L387 582.5L384.5 579C381.293 580.113 380.127 579.28 381 576.5L390.5 571Z" fill="white" stroke="white"/>
<path opacity="0.933333" d="M230.5 572C237.207 570.96 241.707 572.127 244 575.5C245.553 577.613 245.887 580.947 245 585.5L241 594.5V600C244 599 245 600 244 603L237.5 605L233 602.5C233.753 600.28 233.253 599.447 231.5 600C230.5 601.667 228.167 602 224.5 601L220 599L218 595.5V589.5L222.5 585L236 584L237 579.5L234.5 576L232 577L228.5 582C226 582.5 224.5 582 224 580.5L223 578.5L226.5 574L230.5 572ZM232 588L230 589C227.333 589.667 226.333 591.667 227 595L233 596L234 592C235.333 588.667 234.667 587.333 232 588Z" fill="white" stroke="white"/>
<path opacity="0.933333" d="M307.5 573H316.5L318 574.5L316.5 577L312 579.5V590H324.5L327 589C327.627 584.267 326.793 580.6 324.5 578L322 576.5V573H331.5L334.5 574L342 573V577H339.5L337 578L336 580.5V599.5C337.5 600.333 337.833 602.333 337 605.5L339.5 608C342.28 607.127 343.113 608.293 342 611.5L340.5 613H323.5L322 610.5L327 606.5V595H312.5L313 596.5V607.5L314.5 608L317 609C317.5 611 317 612.333 315.5 613H299.5L298 611.5L300.5 608L302 607.5V580.5C301.22 578.333 299.553 577.5 297 578C296 575.5 296.5 574.5 298.5 575L299.5 574H306.5L307.5 573Z" fill="white" stroke="white"/>
<path opacity="0.933333" d="M361.5 578H365.5L372 582.5L375 601C377.54 600.333 379.207 600.833 380 602.5C378.933 606.1 375.767 607.6 370.5 607L367.5 605C366.333 608.833 362.667 610.167 356.5 609L351 604.5V599.5L356.5 593L364 589.5L362 583C359.5 582 358.5 582.5 359 584.5C357.667 585.167 357.333 586.833 358 589.5L355.5 592C352.333 592.5 350.5 591.667 350 589.5C350.167 584.667 352 581.5 355.5 580L361.5 578ZM365 594L361 595L360 599C358.667 599.667 358.667 600.333 360 601L361 602H366V596L365 594Z" fill="white" stroke="white"/>
</svg>
